<?xml version="1.0" standalone="no"?>
<!DOCTYPE svg PUBLIC "-//W3C//DTD SVG 20010904//EN"
 "http://www.w3.org/TR/2001/REC-SVG-20010904/DTD/svg10.dtd">
<svg version="1.0" xmlns="http://www.w3.org/2000/svg"
 width="679.000000pt" height="680.000000pt" viewBox="0 0 679.000000 680.000000"
 preserveAspectRatio="xMidYMid meet">
<metadata>
Created by potrace 1.16, written by Peter Selinger 2001-2019
</metadata>
<g transform="translate(0.000000,680.000000) scale(0.100000,-0.100000)"
fill="#000000" stroke="none">
<path d="M3235 6789 c-354 -18 -749 -107 -1094 -246 -679 -274 -1235 -737
-1626 -1353 -248 -392 -418 -871 -480 -1355 -63 -485 -21 -966 125 -1451 200
-665 615 -1257 1177 -1678 503 -377 1112 -615 1743 -682 185 -19 548 -14 730
11 611 83 1155 303 1628 657 275 207 464 394 666 661 345 456 556 971 647
1577 27 174 37 575 20 757 -59 623 -264 1182 -617 1683 -363 514 -918 947
-1519 1183 -454 179 -938 260 -1400 236z m495 -1203 c497 -85 961 -341 1303
-721 263 -292 429 -582 527 -920 45 -155 60 -240 49 -280 -28 -99 -139 -136
-217 -70 -35 29 -41 43 -86 205 -103 363 -270 641 -561 936 -266 269 -539 436
-875 537 -191 57 -291 72 -495 72 -239 0 -380 -32 -521 -116 -90 -54 -222
-185 -277 -276 -119 -198 -153 -452 -91 -673 60 -207 224 -404 417 -499 151
-73 256 -101 587 -150 411 -62 621 -135 825 -285 158 -117 287 -277 346 -430
36 -94 59 -236 59 -364 0 -89 -3 -110 -21 -139 -42 -67 -140 -86 -198 -37 -44
37 -51 54 -77 181 -35 179 -109 312 -237 429 -174 159 -352 224 -782 284 -492
69 -717 167 -952 414 -147 155 -212 284 -254 506 -28 154 -38 180 -79 208 -56
38 -125 13 -163 -59 -16 -29 -18 -51 -14 -149 7 -143 30 -229 102 -375 134
-270 364 -489 668 -635 196 -95 338 -132 767 -200 276 -44 432 -117 570 -266
64 -70 113 -157 135 -239 22 -85 20 -228 -5 -307 -55 -178 -221 -328 -430
-388 -93 -27 -354 -39 -470 -21 -448 69 -928 347 -1262 728 -94 108 -260 329
-289 385 -34 67 -16 143 45 183 32 21 110 21 141 1 13 -9 68 -71 122 -138 325
-406 700 -654 1153 -762 204 -49 405 -53 507 -11 157 66 189 218 71 334 -67
66 -142 91 -368 121 -300 40 -507 89 -713 171 -562 223 -983 697 -1072 1206
-29 168 -14 395 36 546 75 227 245 465 448 629 294 237 647 390 1026 443 130
19 472 13 605 -9z m-156 -507 c234 -47 531 -171 756 -314 187 -119 230 -165
230 -243 0 -85 -56 -142 -138 -142 -35 0 -78 17 -210 84 -383 193 -633 269
-892 270 -118 1 -140 -2 -175 -20 -136 -71 -103 -249 63 -333 61 -31 134 -49
357 -86 278 -46 413 -77 572 -130 497 -166 893 -508 1070 -928 78 -186 113
-404 94 -591 -36 -349 -174 -623 -447 -886 -167 -161 -316 -264 -527 -365
-455 -217 -973 -263 -1481 -130 -393 102 -778 332 -1075 641 -424 441 -642
953 -658 1546 -5 189 -5 198 16 231 46 75 159 83 215 16 33 -39 33 -40 46
-249 27 -444 152 -773 428 -1119 382 -480 952 -794 1530 -841 258 -21 559 30
799 136 240 106 493 314 625 514 145 219 196 386 185 606 -6 133 -28 225 -83
342 -165 358 -523 625 -1001 746 -54 14 -198 43 -319 65 -341 63 -498 121
-632 234 -139 117 -222 283 -222 447 0 220 166 430 392 495 135 39 303 40 482
4z"/>
</g>
</svg>
